<?xml version="1.0" standalone="no"?>
<!DOCTYPE svg PUBLIC "-//W3C//DTD SVG 20010904//EN"
 "http://www.w3.org/TR/2001/REC-SVG-20010904/DTD/svg10.dtd">
<svg version="1.0" xmlns="http://www.w3.org/2000/svg"
 width="512.000000pt" height="512.000000pt" viewBox="0 0 512.000000 512.000000"
 preserveAspectRatio="xMidYMid meet">

<g transform="translate(0.000000,512.000000) scale(0.095000,-0.095000)"
fill="#ebb89b" stroke="none">
<path d="M703 4985 c-150 -33 -276 -147 -331 -303 -15 -43 -17 -206 -20 -2082
-2 -1320 1 -2058 7 -2100 27 -170 145 -306 320 -368 42 -15 199 -17 1696 -20
1166 -2 1669 0 1714 8 54 9 141 42 141 54 0 1 -21 -1 -47 -5 -78 -13 -214 -10
-309 6 -203 35 -367 113 -531 252 l-62 53 -1256 0 -1256 0 -24 24 c-13 13 -26
39 -30 57 -3 19 -4 931 -3 2026 l3 1993 28 27 27 28 1603 3 c1130 2 1613 0
1639 -8 73 -21 68 61 68 -1209 l0 -1140 48 -6 c80 -11 204 -42 255 -64 27 -12
51 -21 53 -21 2 0 4 546 4 1214 0 1364 5 1270 -75 1390 -67 101 -175 173 -294
196 -35 6 -612 10 -1680 9 -1330 0 -1637 -3 -1688 -14z"/>
<path d="M1112 3938 l3 -183 1140 0 1140 0 3 183 2 182 -1145 0 -1145 0 2
-182z"/>
<path d="M1112 3198 l3 -183 1140 0 1140 0 3 183 2 182 -1145 0 -1145 0 2
-182z"/>
<path d="M1110 2365 l0 -185 1145 0 1145 0 0 185 0 185 -1145 0 -1145 0 0
-185z"/>
<path d="M3935 2194 c-371 -55 -663 -275 -798 -604 -53 -129 -72 -225 -72
-370 0 -145 19 -241 72 -370 204 -497 764 -737 1256 -540 308 124 530 383 603
705 25 109 25 301 0 410 -83 366 -360 651 -724 746 -75 20 -269 33 -337 23z
m255 -330 c186 -43 358 -179 438 -345 51 -105 72 -190 72 -299 0 -109 -21
-194 -72 -299 -32 -67 -57 -102 -122 -167 -130 -129 -284 -194 -466 -194 -109
0 -194 21 -299 72 -67 32 -102 57 -167 122 -129 130 -194 284 -194 466 0 109
21 194 72 299 57 119 170 232 289 289 46 23 111 48 144 56 80 19 224 19 305 0z"/>
<path d="M4005 1765 c-70 -38 -79 -64 -91 -267 l-7 -128 -139 0 c-95 0 -149
-4 -172 -14 -67 -28 -90 -147 -39 -207 42 -50 76 -59 221 -59 l129 0 6 -152
c7 -169 14 -188 78 -220 47 -25 99 -23 140 5 46 31 59 61 59 137 0 36 3 102 7
148 l6 82 121 1 c154 1 203 13 233 58 45 67 21 180 -43 207 -23 10 -77 14
-172 14 l-139 0 -6 143 c-8 161 -17 204 -50 235 -31 30 -103 38 -142 17z"/>
</g>
</svg>
