<?xml version="1.0" standalone="no"?>
<!DOCTYPE svg PUBLIC "-//W3C//DTD SVG 20010904//EN"
 "http://www.w3.org/TR/2001/REC-SVG-20010904/DTD/svg10.dtd">
<svg version="1.0" xmlns="http://www.w3.org/2000/svg"
 width="512.000000pt" height="512.000000pt" viewBox="0 0 512.000000 512.000000"
 preserveAspectRatio="xMidYMid meet">

<g transform="translate(0.000000,512.000000) scale(0.100000,-0.100000)"
fill="#ebb89b" stroke="none">
<path d="M274 4556 c-61 -61 -66 -48 251 -670 157 -307 284 -559 283 -560 -2
-1 -21 -8 -43 -15 -103 -35 -193 -139 -216 -249 -6 -33 -10 -107 -7 -181 3
-102 8 -135 26 -175 37 -82 85 -131 167 -172 41 -20 75 -38 75 -39 0 -2 27
-146 61 -321 33 -176 62 -330 65 -344 2 -14 9 -45 14 -70 5 -25 12 -56 14 -70
5 -30 144 -754 151 -790 3 -14 8 -41 11 -60 10 -55 59 -152 103 -201 21 -24
63 -58 92 -76 110 -65 61 -63 1261 -63 766 0 1103 3 1140 11 66 14 117 40 189
95 30 23 75 48 100 54 66 18 196 85 259 133 78 61 174 179 220 272 62 124 83
217 83 365 1 155 -16 227 -86 370 -44 92 -63 117 -145 200 l-94 95 33 202 32
202 73 36 c81 39 128 89 166 171 21 44 23 64 23 209 0 156 -1 162 -29 218 -28
58 -84 124 -120 144 -17 9 7 60 278 590 328 643 323 628 262 689 -30 30 -41
34 -84 34 -37 0 -55 -5 -73 -22 -14 -13 -164 -296 -334 -630 l-310 -608 -1546
0 -1545 0 -310 607 c-170 334 -320 618 -333 630 -18 18 -36 23 -73 23 -43 0
-54 -4 -84 -34z m4027 -1505 c28 -29 29 -32 29 -136 0 -104 -1 -107 -29 -136
l-29 -29 -1712 0 -1712 0 -29 29 c-28 29 -29 32 -29 136 0 104 1 107 29 136
l29 29 1712 0 1712 0 29 -29z m-241 -558 c0 -5 -10 -70 -22 -145 -23 -151 -19
-146 -93 -128 -72 18 -262 13 -346 -9 -440 -113 -701 -598 -555 -1029 54 -158
152 -301 259 -377 31 -22 56 -43 57 -47 0 -5 -414 -8 -920 -8 -1005 0 -960 -3
-1022 57 -36 34 -40 50 -88 298 -22 116 -42 221 -45 235 -3 14 -7 34 -9 45 -2
11 -36 187 -75 390 -39 204 -73 381 -76 395 -3 14 -7 36 -10 50 -3 14 -16 79
-29 145 -13 66 -21 123 -19 128 2 4 677 7 1499 7 822 0 1494 -3 1494 -7z
m-150 -524 c87 -20 189 -77 254 -144 186 -188 217 -475 77 -694 -42 -65 -139
-155 -203 -187 -63 -32 -187 -64 -247 -64 -129 1 -274 63 -371 160 -180 178
-218 454 -92 670 71 124 217 231 357 263 38 9 180 6 225 -4z"/>
<path d="M1679 2155 c-39 -21 -62 -63 -61 -109 4 -83 123 -862 137 -894 18
-38 68 -72 110 -72 42 0 92 34 112 75 15 32 15 43 -5 182 -12 81 -23 157 -26
168 -2 11 -7 43 -10 70 -4 28 -9 64 -12 80 -3 17 -7 41 -9 55 -31 214 -58 376
-67 396 -25 55 -112 80 -169 49z"/>
<path d="M2496 2151 c-56 -37 -55 -29 -55 -526 -1 -348 2 -466 12 -485 18 -37
74 -62 122 -56 29 3 49 14 72 40 l33 36 0 469 0 470 -34 35 c-28 31 -40 36
-77 36 -27 0 -56 -8 -73 -19z"/>
<path d="M3728 1801 l-33 -29 -3 -121 -4 -121 -112 0 c-126 0 -147 -8 -166
-65 -16 -47 -5 -89 32 -120 28 -23 37 -25 139 -25 l109 0 0 -104 c0 -58 4
-116 10 -130 21 -56 118 -74 167 -32 27 24 28 27 31 145 l4 121 104 0 c127 0
158 12 175 69 9 29 9 47 0 74 -19 57 -44 67 -171 67 l-110 0 0 110 c0 151 -21
190 -104 190 -25 0 -45 -9 -68 -29z"/>
</g>
</svg>
