<?xml version="1.0" standalone="no"?>
<!DOCTYPE svg PUBLIC "-//W3C//DTD SVG 20010904//EN"
 "http://www.w3.org/TR/2001/REC-SVG-20010904/DTD/svg10.dtd">
<svg version="1.0" xmlns="http://www.w3.org/2000/svg"
 width="512.000000pt" height="512.000000pt" viewBox="0 0 512.000000 512.000000"
 preserveAspectRatio="xMidYMid meet">

<g transform="translate(0.000000,512.000000) scale(0.100000,-0.100000)"
fill="#ebb89b" stroke="none">
<path d="M1056 4413 c-2 -16 -8 -75 -11 -133 -11 -175 -8 -169 -95 -196 -119
-38 -209 -111 -246 -201 -9 -19 -18 -66 -21 -102 -11 -136 54 -217 257 -320
150 -77 190 -113 190 -170 0 -55 -29 -83 -105 -105 -87 -26 -272 -11 -366 28
-13 6 -20 -7 -37 -66 -36 -123 -36 -125 -14 -132 11 -4 55 -11 98 -16 213 -24
194 -19 194 -54 -1 -17 -9 -88 -19 -158 l-17 -128 76 0 77 0 7 133 c3 72 10
148 14 167 7 33 11 35 73 50 77 18 154 64 209 127 30 34 42 60 54 113 20 86
20 109 1 174 -32 111 -144 198 -363 286 -39 15 -72 58 -72 94 0 27 45 85 70
90 8 2 23 6 32 10 17 8 154 3 198 -7 14 -3 47 -12 73 -21 37 -12 49 -12 52 -3
21 60 54 200 50 207 -3 5 -13 9 -23 9 -9 0 -63 6 -119 12 l-103 12 0 41 c1 22
7 77 15 121 8 44 15 99 15 123 l0 42 -69 0 c-68 0 -70 -1 -75 -27z"/>
<path d="M3883 3287 l-382 -292 79 -3 c44 -2 80 -6 80 -9 0 -4 -22 -36 -48
-72 -26 -36 -270 -376 -542 -754 l-494 -689 -151 154 c-82 84 -255 263 -383
398 -147 154 -247 251 -270 262 -45 21 -131 23 -175 4 -33 -13 -82 -64 -98
-101 -5 -11 -33 -78 -63 -149 l-53 -129 -96 184 c-100 193 -140 245 -209 274
-21 8 -51 15 -68 15 -35 0 -111 -33 -135 -60 -9 -10 -136 -289 -284 -621
l-267 -603 -152 1 c-83 1 -154 -2 -157 -6 -2 -5 0 -55 5 -112 16 -166 67 -243
179 -268 40 -9 2567 2 4042 17 l705 7 42 28 c79 52 106 118 114 277 l3 75
-1182 -3 c-651 -1 -1183 0 -1183 4 0 3 273 382 607 842 l608 835 32 -69 c30
-65 32 -68 41 -44 5 14 78 214 162 444 112 309 150 424 143 435 -6 9 -23 17
-39 18 -24 1 -97 -50 -411 -290z m-1801 -1836 l327 -336 -177 -6 c-252 -9
-1522 -10 -1522 -2 0 21 304 663 311 656 4 -4 53 -93 109 -198 56 -104 111
-205 122 -223 27 -44 85 -72 150 -72 93 0 99 7 227 279 62 132 116 241 120
240 3 -1 153 -152 333 -338z"/>
</g>
</svg>
