<?xml version="1.0" standalone="no"?>
<!DOCTYPE svg PUBLIC "-//W3C//DTD SVG 20010904//EN"
 "http://www.w3.org/TR/2001/REC-SVG-20010904/DTD/svg10.dtd">
<svg version="1.0" xmlns="http://www.w3.org/2000/svg"
 width="512.000000pt" height="512.000000pt" viewBox="0 0 512.000000 512.000000"
 preserveAspectRatio="xMidYMid meet">

<g transform="translate(0.000000,512.000000) scale(0.100000,-0.100000)"
fill="#ebb89b" stroke="none">
<path d="M2720 4223 c-188 -33 -400 -128 -547 -246 -87 -70 -203 -201 -236
-267 -13 -25 -35 -65 -49 -90 -62 -107 -108 -295 -108 -439 1 -70 12 -181 26
-257 l6 -30 -131 -12 c-167 -16 -385 -55 -484 -87 -81 -26 -125 -52 -234 -137
l-63 -48 0 30 c0 45 -25 96 -56 117 -25 16 -57 18 -319 21 -356 4 -385 1 -434
-43 l-36 -33 -6 -464 c-4 -255 -7 -651 -8 -881 l-1 -419 34 -34 34 -34 348 0
c332 0 351 1 382 20 44 27 62 74 62 163 0 72 1 75 33 100 17 14 59 51 92 83
33 31 105 97 160 147 l100 89 100 -5 c55 -4 582 -25 1171 -48 910 -36 1075
-41 1103 -29 32 13 349 331 381 382 9 15 91 105 182 200 92 95 190 202 220
238 29 36 80 92 113 125 33 33 120 125 193 205 73 80 171 186 217 236 122 132
126 151 64 272 -101 198 -244 277 -413 228 -137 -40 -206 -84 -434 -274 l-114
-94 9 58 c24 169 -7 427 -68 576 -60 146 -211 339 -364 466 -106 88 -382 199
-548 222 -108 14 -275 11 -377 -7z m347 -173 c225 -31 467 -161 596 -322 28
-35 63 -78 78 -96 43 -48 108 -192 136 -301 37 -138 37 -302 -1 -417 -32 -100
-163 -314 -179 -293 -2 2 -21 36 -42 74 -45 83 -60 102 -98 121 -16 9 -115 23
-240 36 -117 11 -214 23 -216 24 -3 2 5 14 17 27 51 54 67 178 32 254 -21 48
-81 91 -203 147 -41 18 -84 44 -95 57 -28 29 -29 80 -2 104 30 27 153 33 236
10 36 -10 66 -16 68 -14 4 5 36 136 36 147 0 13 -42 23 -119 28 -36 2 -67 6
-69 9 -5 5 15 197 24 228 5 15 -2 17 -50 17 -65 0 -61 7 -71 -139 -8 -112 -11
-121 -39 -121 -32 -1 -98 -33 -140 -70 -77 -68 -105 -178 -68 -262 11 -26 33
-54 49 -64 15 -10 37 -25 48 -35 11 -9 52 -33 92 -53 116 -60 147 -107 108
-163 -30 -43 -168 -57 -275 -28 -74 20 -76 20 -86 -17 l-10 -32 -292 -1 c-251
0 -293 2 -296 15 -21 73 -30 155 -30 265 0 120 3 137 33 225 41 120 78 184
162 282 245 284 552 405 906 358z m1689 -956 c34 -16 114 -115 114 -140 0 -7
-62 -77 -138 -156 -164 -170 -233 -245 -253 -274 -8 -12 -92 -102 -186 -200
-94 -99 -201 -215 -238 -259 -36 -44 -88 -100 -115 -125 -47 -45 -286 -305
-325 -355 l-20 -25 -1177 47 c-1343 53 -1194 59 -1314 -48 -118 -106 -192
-169 -198 -169 -3 0 -6 213 -6 473 l0 474 108 105 c176 172 272 209 644 253
209 24 582 35 853 25 488 -19 927 -52 954 -74 8 -6 27 -31 43 -55 37 -60 38
-118 1 -192 l-28 -54 -510 -5 c-387 -4 -515 -8 -532 -18 -30 -17 -43 -43 -43
-85 0 -50 38 -84 103 -92 29 -3 291 -5 582 -3 605 3 548 -6 631 101 27 34 105
123 174 197 69 74 144 158 167 185 43 52 102 104 283 252 58 47 124 101 148
121 58 48 97 71 157 93 62 23 78 23 121 3z m-4051 -1274 l0 -755 -244 -3 -244
-2 6 451 c4 249 7 591 7 761 l0 308 238 -2 237 -3 0 -755z"/>
</g>
</svg>
