<?xml version="1.0" standalone="no"?>
<!DOCTYPE svg PUBLIC "-//W3C//DTD SVG 20010904//EN"
 "http://www.w3.org/TR/2001/REC-SVG-20010904/DTD/svg10.dtd">
<svg version="1.0" xmlns="http://www.w3.org/2000/svg"
 width="452.000000pt" height="452.000000pt" viewBox="0 0 452.000000 452.000000"
 preserveAspectRatio="xMidYMid meet">

<g transform="translate(0.000000,452.000000) scale(0.100000,-0.100000)"
fill="#ebb89b" stroke="none">
<path d="M945 4233 c-28 -10 -66 -29 -85 -43 -171 -119 -455 -388 -528 -498
-55 -83 -66 -128 -57 -227 36 -424 303 -925 812 -1521 162 -191 664 -692 857
-857 594 -507 1098 -776 1521 -812 100 -9 144 2 227 57 133 88 458 446 525
578 23 46 28 68 28 135 0 70 -4 86 -28 128 -26 45 -64 72 -444 324 -228 151
-434 283 -456 294 -99 44 -186 20 -446 -125 l-192 -108 -52 35 c-185 124 -679
600 -913 880 -88 104 -154 193 -154 205 0 5 46 90 102 188 154 270 177 357
120 465 -16 30 -148 235 -294 456 -240 362 -271 404 -313 428 -61 36 -158 44
-230 18z m146 -182 c10 -9 426 -635 485 -728 74 -118 76 -107 -117 -450 -60
-105 -109 -196 -109 -202 0 -18 89 -146 171 -247 287 -354 795 -843 1065
-1025 40 -27 78 -49 85 -49 6 0 97 49 203 109 105 60 214 120 242 134 53 27
119 37 144 23 8 -5 191 -125 407 -268 277 -184 393 -266 397 -282 11 -43 -16
-97 -96 -199 -112 -142 -340 -367 -401 -396 -48 -23 -49 -23 -157 -8 -367 53
-852 329 -1364 776 -505 441 -958 943 -1242 1376 -103 157 -241 432 -287 572
-40 121 -72 298 -62 345 18 79 223 290 463 477 67 52 144 71 173 42z"/>
</g>
</svg>
