<?xml version="1.0" standalone="no"?>
<!DOCTYPE svg PUBLIC "-//W3C//DTD SVG 20010904//EN"
 "http://www.w3.org/TR/2001/REC-SVG-20010904/DTD/svg10.dtd">
<svg version="1.0" xmlns="http://www.w3.org/2000/svg"
 width="512.000000pt" height="512.000000pt" viewBox="0 0 512.000000 512.000000"
 preserveAspectRatio="xMidYMid meet">

<g transform="translate(0.000000,512.000000) scale(0.100000,-0.100000)"
fill="#ebb89b" stroke="none">
<path d="M3450 5042 c-19 -9 -45 -32 -57 -51 -20 -30 -23 -46 -23 -142 l0
-109 -785 -2 c-432 -1 -795 -2 -807 -2 -22 -1 -23 3 -28 104 -6 114 -20 152
-66 189 -33 26 -113 28 -154 5 -50 -30 -65 -68 -70 -189 l-5 -110 -567 -5
c-553 -5 -567 -6 -594 -26 -15 -11 -37 -32 -48 -47 -23 -31 -20 196 -30 -2733
-4 -1293 -4 -1362 13 -1400 25 -53 57 -80 111 -94 34 -9 433 -10 1630 -4 1571
9 1586 9 1611 29 62 49 1301 1383 1319 1421 20 40 20 64 23 1390 2 1349 2
1349 -19 1389 -13 25 -36 47 -64 62 l-43 23 -569 0 -568 0 0 103 c0 118 -14
158 -69 194 -41 28 -93 30 -141 5z m1180 -976 l0 -385 -147 -4 c-82 -1 -1006
-4 -2055 -5 l-1908 -2 0 385 0 385 465 0 465 0 0 -127 c0 -152 9 -192 54 -231
49 -43 97 -49 154 -20 74 37 85 65 90 235 l5 143 808 0 809 0 1 -52 c5 -231
16 -281 75 -327 57 -45 149 -19 195 55 25 40 24 34 28 262 l1 72 480 0 480 0
0 -384z m0 -1336 l0 -650 -59 0 -60 0 -3 348 c-3 372 -4 378 -56 425 -53 48
17 46 -1904 47 -1253 0 -1815 -3 -1835 -11 -42 -15 -82 -58 -93 -99 -5 -19
-12 -416 -16 -885 l-6 -850 23 -34 c13 -19 37 -44 52 -55 l29 -21 1336 0 1337
0 3 -112 3 -113 -1436 0 -1435 0 0 1325 0 1325 783 2 c430 2 1357 4 2060 6
l1277 2 0 -650z m-3180 -395 l0 -265 -275 0 -275 0 0 265 0 265 275 0 275 0 0
-265z m964 9 c4 -146 4 -260 -1 -265 -5 -5 -157 -8 -339 -7 l-329 3 -3 263 -2
262 333 0 334 0 7 -256z m956 -9 l0 -265 -330 0 -330 0 0 265 0 265 330 0 330
0 0 -265z m845 9 c4 -140 4 -258 0 -262 -4 -4 -128 -8 -276 -10 l-269 -3 0
265 0 266 269 0 268 0 8 -256z m-2765 -833 l0 -268 -52 -7 c-29 -3 -155 -6
-280 -6 l-228 0 0 153 c0 85 3 209 7 275 l6 122 274 0 273 0 0 -269z m970 -1
l0 -270 -335 0 -335 0 0 270 0 270 335 0 335 0 0 -270z m944 248 c3 -13 6
-134 6 -270 l0 -248 -323 0 -324 0 -6 158 c-9 203 -9 367 0 375 3 4 149 7 324
7 l317 0 6 -22z m1019 -21 c-21 -24 -189 -205 -373 -401 l-335 -358 -6 229
c-4 125 -7 303 -8 395 l-1 168 278 3 c152 1 324 3 380 5 l104 2 -39 -43z"/>
</g>
</svg>
