<?xml version="1.0" standalone="no"?>
<!DOCTYPE svg PUBLIC "-//W3C//DTD SVG 20010904//EN"
 "http://www.w3.org/TR/2001/REC-SVG-20010904/DTD/svg10.dtd">
<svg version="1.0" xmlns="http://www.w3.org/2000/svg"
 width="512.000000pt" height="512.000000pt" viewBox="0 0 512.000000 512.000000"
 preserveAspectRatio="xMidYMid meet">

<g transform="translate(0.000000,512.000000) scale(0.100000,-0.100000)"
fill="#ebb89b" stroke="none">
<path d="M413 5105 c-150 -33 -276 -147 -331 -303 -15 -43 -17 -206 -20 -2082
-2 -1320 1 -2058 7 -2100 27 -170 145 -306 320 -368 42 -15 197 -17 1661 -20
996 -2 1653 1 1713 7 121 12 184 43 234 116 57 82 56 86 -33 176 -60 61 -84
79 -99 74 -11 -3 -776 -5 -1699 -5 -1863 0 -1715 -6 -1736 67 -8 27 -10 619
-8 2035 l3 1998 28 27 27 28 1603 3 c1127 2 1613 0 1639 -8 21 -6 43 -21 50
-33 10 -17 14 -246 18 -1050 l5 -1029 95 -32 c52 -17 131 -53 174 -79 43 -26
80 -47 82 -47 2 0 4 508 4 1129 0 1268 5 1185 -75 1305 -67 101 -175 173 -294
196 -35 6 -612 10 -1680 9 -1330 0 -1637 -3 -1688 -14z"/>
<path d="M752 3808 l3 -183 1140 0 1140 0 3 183 2 182 -1145 0 -1145 0 2 -182z"/>
<path d="M750 2765 l0 -185 1145 0 1145 0 0 185 0 185 -1145 0 -1145 0 0 -185z"/>
<path d="M3363 2409 c-329 -33 -608 -276 -693 -604 -27 -103 -29 -269 -5 -375
52 -229 223 -446 428 -544 127 -61 215 -81 357 -79 137 1 232 20 342 69 l60
27 451 -451 452 -452 153 152 152 153 -451 451 -452 452 31 73 c53 129 66 192
65 329 0 95 -5 144 -21 202 -105 386 -471 638 -869 597z m230 -344 c72 -21
122 -51 185 -109 196 -182 202 -487 13 -684 -140 -146 -392 -178 -584 -74 -56
30 -148 125 -178 184 -55 107 -69 262 -35 366 60 181 217 313 396 335 51 7
151 -2 203 -18z"/>
</g>
</svg>
