<?xml version="1.0" standalone="no"?>
<!DOCTYPE svg PUBLIC "-//W3C//DTD SVG 20010904//EN"
 "http://www.w3.org/TR/2001/REC-SVG-20010904/DTD/svg10.dtd">
<svg version="1.0" xmlns="http://www.w3.org/2000/svg"
 width="640.000000pt" height="640.000000pt" viewBox="0 0 640.000000 640.000000"
 preserveAspectRatio="xMidYMid meet">

<g transform="translate(0.000000,640.000000) scale(0.100000,-0.100000)"
fill="#ebb89b" stroke="none">
<path d="M314 6046 c-34 -15 -72 -58 -80 -91 -13 -51 60 -206 528 -1122 l179
-353 -28 -10 c-124 -47 -207 -119 -260 -228 l-38 -76 0 -206 0 -205 32 -66
c41 -83 108 -149 213 -207 l84 -47 92 -485 c247 -1299 305 -1598 320 -1640 47
-130 151 -251 264 -308 51 -25 86 -34 160 -42 128 -13 2573 -13 2700 0 73 8
109 17 155 40 61 31 168 117 130 105 -263 -85 -556 -42 -770 114 l-50 36
-1065 5 c-799 5 -1074 9 -1101 18 -20 7 -55 32 -77 56 -51 55 -42 15 -242
1056 -194 1001 -200 1033 -194 1042 3 5 845 8 1871 8 l1866 0 -7 -61 c-4 -33
-11 -70 -16 -82 -17 -40 -122 -601 -113 -604 37 -13 148 -89 204 -141 38 -35
69 -60 69 -55 0 24 112 595 124 633 8 25 25 106 37 180 l21 135 79 39 c97 48
168 116 212 205 l32 66 0 205 0 205 -34 70 c-20 41 -58 93 -93 129 -32 33 -58
68 -58 78 0 10 157 329 349 710 199 397 353 715 361 745 11 47 10 56 -7 84
-31 54 -67 74 -133 74 -43 -1 -64 -6 -80 -20 -32 -29 -200 -347 -656 -1242
l-159 -313 -1930 0 -1931 0 -316 618 c-353 688 -469 908 -496 934 -24 25 -108
33 -148 14z m4994 -1918 c32 -42 32 -42 32 -160 0 -121 -5 -144 -43 -185 l-20
-23 -2147 0 -2147 0 -20 23 c-38 41 -43 64 -43 185 0 118 0 118 32 160 l32 42
2146 0 2146 0 32 -42z"/>
<path d="M2030 3012 c-53 -28 -83 -92 -75 -162 22 -194 146 -999 166 -1072 11
-44 69 -95 116 -104 47 -9 97 12 139 58 l37 41 -6 91 c-5 85 -55 432 -128 881
-17 105 -38 203 -46 218 -17 34 -83 66 -133 67 -19 0 -51 -8 -70 -18z"/>
<path d="M3060 3012 c-22 -10 -43 -32 -55 -57 -19 -39 -20 -60 -20 -615 0
-533 1 -578 18 -603 31 -47 109 -74 168 -57 18 5 50 26 71 47 l38 37 0 592 0
591 -45 42 c-39 36 -50 41 -92 41 -27 0 -64 -8 -83 -18z"/>
<path d="M4083 3011 c-24 -11 -48 -31 -56 -48 -12 -23 -67 -313 -67 -353 0 -6
19 2 43 18 57 40 151 86 217 107 30 9 60 22 66 29 7 6 15 40 18 76 6 56 4 71
-16 109 -40 77 -119 100 -205 62z"/>
<path d="M4410 2719 c-119 -12 -176 -26 -263 -68 -105 -49 -160 -90 -234 -172
-159 -176 -224 -338 -224 -559 0 -143 23 -239 86 -365 191 -381 641 -545 1034
-378 l83 36 447 -447 c245 -245 451 -446 456 -446 5 0 76 66 157 147 l148 148
-451 451 -451 451 35 89 c47 119 60 188 61 314 0 169 -50 327 -152 476 -153
224 -440 351 -732 323z m223 -344 c72 -21 122 -51 185 -109 198 -184 203 -490
11 -685 -144 -146 -390 -177 -582 -73 -56 30 -148 125 -178 184 -75 147 -72
321 9 466 67 120 214 219 352 235 51 7 151 -2 203 -18z"/>
</g>
</svg>
