<?xml version="1.0" standalone="no"?>
<!DOCTYPE svg PUBLIC "-//W3C//DTD SVG 20010904//EN"
 "http://www.w3.org/TR/2001/REC-SVG-20010904/DTD/svg10.dtd">
<svg version="1.0" xmlns="http://www.w3.org/2000/svg"
 width="512.000000pt" height="512.000000pt" viewBox="0 0 512.000000 512.000000"
 preserveAspectRatio="xMidYMid meet">

<g transform="translate(0.000000,512.000000) scale(0.100000,-0.100000)"
fill="#ebb89b" stroke="none">
<path d="M2400 5099 c-521 -26 -1031 -225 -1447 -566 -343 -280 -602 -635
-761 -1038 -63 -159 -97 -278 -136 -466 -51 -246 -51 -677 0 -939 34 -171 99
-394 151 -510 190 -429 445 -760 798 -1037 347 -272 796 -455 1260 -513 129
-16 487 -14 621 4 623 84 1178 380 1589 849 181 206 307 407 439 699 46 103
119 350 150 508 51 264 51 693 0 939 -39 189 -73 307 -135 463 -162 410 -417
759 -759 1039 -248 203 -504 343 -822 450 -111 38 -160 50 -323 83 -167 34
-394 46 -625 35z m425 -234 c288 -34 519 -103 770 -230 617 -312 1054 -859
1219 -1525 100 -403 84 -868 -43 -1255 -85 -257 -193 -468 -351 -681 -63 -84
-193 -235 -209 -242 -3 -1 -14 55 -24 125 -52 389 -202 696 -468 963 -169 170
-411 324 -611 389 -21 7 -38 16 -38 21 0 5 19 22 43 39 51 35 152 141 197 206
49 71 106 201 129 294 26 106 29 305 6 406 -63 272 -240 496 -486 618 -136 67
-234 90 -394 91 -105 0 -148 -4 -224 -23 -329 -83 -588 -349 -666 -686 -23
-101 -20 -300 6 -406 24 -94 80 -223 129 -294 44 -64 150 -176 200 -210 22
-15 40 -31 40 -36 0 -4 -17 -13 -37 -20 -21 -6 -67 -25 -103 -41 -281 -125
-514 -312 -682 -548 -41 -57 -148 -235 -148 -245 0 -3 -11 -30 -26 -60 -63
-139 -112 -334 -130 -518 -4 -37 -10 -66 -14 -65 -17 7 -145 155 -210 242
-153 207 -259 410 -345 661 -150 441 -152 986 -6 1430 67 204 158 393 270 562
104 158 177 247 302 372 189 187 393 333 622 444 409 199 842 273 1282 222z
m-97 -1025 c254 -70 428 -250 492 -505 35 -139 19 -299 -41 -432 -77 -167
-240 -312 -414 -366 -282 -89 -589 15 -759 257 -80 114 -114 215 -123 361 -15
254 133 511 361 628 152 77 333 99 484 57z m-23 -1571 c184 -22 322 -62 475
-138 414 -205 698 -585 775 -1036 18 -104 31 -320 22 -357 -16 -61 -407 -283
-643 -366 -273 -96 -463 -127 -774 -127 -308 0 -523 36 -785 130 -194 70 -498
236 -611 334 l-27 23 6 137 c16 368 122 647 345 914 181 215 461 387 737 453
171 41 328 51 480 33z"/>
</g>
</svg>
