<?xml version="1.0" standalone="no"?>
<!DOCTYPE svg PUBLIC "-//W3C//DTD SVG 20010904//EN"
 "http://www.w3.org/TR/2001/REC-SVG-20010904/DTD/svg10.dtd">
<svg version="1.0" xmlns="http://www.w3.org/2000/svg"
 width="512.000000pt" height="512.000000pt" viewBox="0 0 512.000000 512.000000"
 preserveAspectRatio="xMidYMid meet">

<g transform="translate(0.000000,512.000000) scale(0.100000,-0.100000)"
fill="#ebb89b" stroke="none">
<path d="M1041 5104 c-123 -33 -228 -104 -310 -211 -54 -70 -112 -180 -129
-248 -6 -22 -15 -58 -21 -81 l-11 -41 -68 -6 c-218 -21 -402 -166 -474 -375
l-23 -67 0 -1815 0 -1815 23 -66 c57 -166 185 -294 350 -351 l67 -23 2115 0
2115 0 67 23 c165 57 293 185 350 351 l23 66 0 1815 0 1815 -23 67 c-72 209
-256 354 -474 375 -63 5 -69 8 -74 32 -42 192 -141 362 -268 458 -199 150
-433 150 -632 0 -103 -78 -210 -239 -242 -362 -6 -22 -16 -59 -22 -82 l-11
-43 -109 0 -109 0 -11 43 c-37 144 -79 237 -151 330 -117 152 -289 236 -459
224 -269 -19 -477 -234 -554 -569 l-6 -28 -110 0 -109 0 -11 43 c-37 144 -79
237 -151 330 -139 180 -355 263 -548 211z m183 -296 c78 -23 185 -155 211
-261 l7 -27 -282 0 -282 0 7 28 c16 64 70 155 120 201 74 67 135 84 219 59z
m1400 0 c78 -23 184 -155 210 -260 l6 -28 -281 0 -281 0 7 28 c16 64 70 155
120 201 74 67 135 84 219 59z m1400 0 c78 -23 185 -155 211 -261 l7 -27 -282
0 -282 0 6 25 c16 62 64 144 116 195 74 75 136 94 224 68z m-3448 -615 c42
-195 141 -364 268 -460 132 -100 296 -139 386 -93 45 23 80 80 80 130 0 74
-74 150 -146 150 -15 0 -45 5 -68 12 -78 23 -185 155 -211 261 l-7 27 546 0
545 0 11 -42 c37 -145 79 -238 151 -331 168 -219 481 -301 559 -147 25 50 25
90 0 140 -22 43 -80 80 -126 80 -59 0 -109 24 -164 80 -52 51 -100 133 -116
195 l-6 25 546 0 545 0 11 -42 c52 -204 138 -349 264 -445 132 -100 296 -139
386 -93 45 23 80 80 80 130 0 74 -74 150 -146 150 -15 0 -45 5 -68 12 -78 23
-185 155 -211 261 l-7 27 464 0 c527 0 529 0 603 -75 72 -72 75 -90 75 -482
l0 -343 -2260 0 -2260 0 0 343 c0 293 2 351 17 392 30 89 128 162 220 164 28
1 34 -3 39 -26z m4244 -2426 c0 -1409 5 -1312 -75 -1392 -81 -82 112 -75
-2185 -75 -2297 0 -2104 -7 -2185 75 -80 80 -75 -17 -75 1392 l0 1253 2260 0
2260 0 0 -1253z"/>
<path d="M2412 2690 c-40 -11 -101 -34 -135 -52 -81 -42 -203 -164 -245 -245
-42 -80 -72 -198 -72 -283 0 -128 57 -286 136 -378 l33 -40 -52 -34 c-68 -46
-168 -145 -216 -217 -56 -82 -87 -149 -117 -248 -23 -77 -27 -110 -31 -274 -5
-175 -4 -188 16 -227 14 -28 35 -49 61 -62 38 -20 57 -20 770 -20 713 0 732 0
770 20 26 13 47 34 61 62 20 39 21 52 16 227 -4 164 -8 197 -31 274 -29 99
-61 166 -117 248 -50 74 -145 169 -213 215 l-55 36 35 42 c78 91 133 249 134
382 0 79 -31 199 -72 277 -42 81 -164 203 -245 245 -132 69 -291 88 -431 52z
m282 -314 c105 -51 161 -144 161 -266 0 -85 -21 -142 -74 -203 -82 -92 -237
-121 -353 -64 -160 79 -215 278 -118 430 80 126 246 170 384 103z m40 -895
c215 -75 357 -261 373 -488 l6 -83 -552 0 -551 0 0 53 c0 70 32 195 67 260 35
66 153 184 220 220 127 68 306 84 437 38z"/>
</g>
</svg>
