<?xml version="1.0" standalone="no"?>
<!DOCTYPE svg PUBLIC "-//W3C//DTD SVG 20010904//EN"
 "http://www.w3.org/TR/2001/REC-SVG-20010904/DTD/svg10.dtd">
<svg version="1.0" xmlns="http://www.w3.org/2000/svg"
 width="512.000000pt" height="512.000000pt"  viewBox="0 0 512.000000 512.000000"
 preserveAspectRatio="xMidYMid meet">

<g transform="translate(0.000000,512.000000) scale(0.100000,-0.100000)"
fill="#ebb89b" stroke="none">
<path d="M2380 5105 c-108 -16 -154 -28 -265 -70 -372 -142 -655 -462 -754
-853 -32 -123 -41 -262 -41 -597 l0 -313 -92 -4 c-65 -3 -110 -11 -150 -26
-109 -43 -205 -139 -250 -249 l-23 -58 -3 -1279 c-2 -1112 0 -1287 13 -1331
46 -161 181 -284 344 -315 74 -14 2728 -14 2802 0 163 31 298 154 344 315 13
44 15 219 13 1331 l-3 1279 -23 58 c-45 110 -141 206 -250 249 -40 15 -85 23
-149 26 l-93 4 0 319 c0 176 -5 363 -11 417 -44 403 -263 741 -614 946 -235
137 -522 192 -795 151z m395 -390 c75 -21 208 -82 272 -126 162 -111 289 -291
345 -491 19 -67 22 -106 25 -450 l4 -378 -861 0 -861 0 3 378 c4 376 4 377 31
465 79 257 234 437 470 547 76 36 159 62 232 74 60 9 280 -3 340 -19z m1122
-1826 c15 -5 31 -16 35 -22 4 -7 8 -561 8 -1231 0 -1121 -1 -1221 -17 -1238
-15 -17 -71 -18 -1361 -18 -1238 0 -1347 1 -1364 17 -17 15 -18 67 -18 1237 0
672 4 1226 8 1233 4 7 19 16 32 22 36 14 2639 15 2677 0z"/>
<path d="M2496 2175 c-50 -18 -92 -59 -111 -109 -14 -35 -15 -98 -13 -446 3
-405 3 -405 26 -443 73 -116 251 -116 324 0 23 38 23 38 26 443 3 452 2 462
-63 519 -34 29 -90 51 -130 51 -11 -1 -37 -7 -59 -15z"/>
</g>
</svg>
